<svg id="Layer_1" data-name="Layer 1" xmlns="http://www.w3.org/2000/svg" viewBox="0 0 1131.59 322.02"><defs><style>.cls-1{fill:#4fc2f0;}.cls-2{fill:#4399c4;}</style></defs><title>wave</title><path class="cls-1" d="M965.86,629.89c-53.5-7.4-104.31-23.74-153.94-44.18C742,557,676.19,520,608.71,486.34,543.39,453.77,477,424.13,405.24,408c-30.72-6.9-61.83-10.59-93.23-13.41,7.82-.8,15.62-1.82,23.45-2.37,95.72-6.69,190.14-1.94,281.14,32.11,44.93,16.81,87.65,38.59,131.27,58.34A891.69,891.69,0,0,0,972.78,550.4c54.88,9,109.92,14.66,165.5,12.28,37-1.58,73.27-7.24,106.4-25.29,13.93-7.6,26.51-16.83,35.26-30.89,2,19.79-3.56,37.54-14.56,53.53-18.18,26.42-44.7,41.53-74.17,52.2-38,13.74-77.55,18.88-117.6,21.43-1.6.1-26.13,1-49.61.34C998.09,633.25,972.8,630.85,965.86,629.89Z" transform="translate(-312.01 -312.23)"/><path class="cls-2" d="M339.78,329.64c56.81-10.36,113.5-16.84,170.86-17.38,79.66-.75,156.29,14.52,231,41,66.61,23.58,132.88,48.24,202.26,63a1065.5,1065.5,0,0,0,143.06,20.65c30.74,2.27,61.49,4.7,92.28,3.61,65.69-2.33,130.56-9.43,191-38,28.51-13.49,53.7-31.26,72.74-57.09,1,5.67,1,9.67-1.82,21.13-15.58,51.17-51.85,84.15-97.4,108.6-44,23.61-91.77,35.29-140.73,42.84a628.26,628.26,0,0,1-109.21,6.78c-58-1.23-114.27-12.58-169.67-28.69-80.41-23.39-157-56.92-234.64-87.72-68.42-27.15-137.44-52.37-210-66.56-36.23-7.09-72.72-11.55-109.66-12C359.81,329.53,349.8,329.64,339.78,329.64Z" transform="translate(-312.01 -312.23)"/><path class="cls-1" d="M323.38,435c31.48.84,61.1,4,90.36,11.44,41.34,10.5,79,29.13,116.21,49.2,29.58,16,56.26,29.79,86,45.38,2.12,1.11,7.41,3.82,12.06,6.55-24.46.75-46.08,1.56-67.61-.41-15.25-1.39-30.48-3.54-45.38-7.58a147.41,147.41,0,0,1-56.63-29.22c-35.13-29.13-73.51-55-117.44-69.34C337.94,440,332,438,323.38,435Z" transform="translate(-312.01 -312.23)"/></svg>